<?xml version="1.0" encoding="UTF-8" standalone="no"?>
<!-- Created with Inkscape (http://www.inkscape.org/) -->

<svg
   xmlns:dc="http://purl.org/dc/elements/1.1/"
   xmlns:cc="http://creativecommons.org/ns#"
   xmlns:rdf="http://www.w3.org/1999/02/22-rdf-syntax-ns#"
   xmlns:svg="http://www.w3.org/2000/svg"
   xmlns="http://www.w3.org/2000/svg"
   xmlns:sodipodi="http://sodipodi.sourceforge.net/DTD/sodipodi-0.dtd"
   xmlns:inkscape="http://www.inkscape.org/namespaces/inkscape"
   version="1.1"
   id="svg2"
   xml:space="preserve"
   width="1182.3551"
   height="1010.9083"
   viewBox="0 0 1182.3552 1010.9083"
   sodipodi:docname="hydro-power-station.svg"
   inkscape:version="0.92.5 (0.92.5+68)"><metadata
     id="metadata8"><rdf:RDF><cc:Work
         rdf:about=""><dc:format>image/svg+xml</dc:format><dc:type
           rdf:resource="http://purl.org/dc/dcmitype/StillImage" /><dc:title></dc:title></cc:Work></rdf:RDF></metadata><defs
     id="defs6" /><sodipodi:namedview
     pagecolor="#ffffff"
     bordercolor="#666666"
     borderopacity="1"
     objecttolerance="10"
     gridtolerance="10"
     guidetolerance="10"
     inkscape:pageopacity="0"
     inkscape:pageshadow="2"
     inkscape:window-width="1855"
     inkscape:window-height="1056"
     id="namedview4"
     showgrid="false"
     fit-margin-top="0"
     fit-margin-left="0"
     fit-margin-right="0"
     fit-margin-bottom="0"
     inkscape:zoom="0.45471497"
     inkscape:cx="211.57871"
     inkscape:cy="482.31889"
     inkscape:window-x="65"
     inkscape:window-y="24"
     inkscape:window-maximized="1"
     inkscape:current-layer="g10" /><g
     id="g10"
     inkscape:groupmode="layer"
     inkscape:label="ink_ext_XXXXXX"
     transform="matrix(1.3333333,0,0,-1.3333333,-212.81446,1327.9427)"><g
       id="g4595"
       transform="rotate(2.2307439,792.1197,613.1165)"><path
         d="M 1039.67,693.515 509.237,999.761 391.175,931.596 159.349,618.709 l 530.43,-306.242 231.828,312.888 118.063,68.16"
         style="fill:#adda1a;fill-opacity:1;fill-rule:evenodd;stroke:none;stroke-width:0.1"
         id="path18"
         inkscape:connector-curvature="0" /><path
         d="M 1039.67,435.982 V 693.515 L 921.607,625.355 689.779,312.467 v -78.495 l 349.891,202.01"
         style="fill:#87b027;fill-opacity:1;fill-rule:evenodd;stroke:none;stroke-width:0.1"
         id="path20"
         inkscape:connector-curvature="0" /><path
         d="m 689.779,312.467 -530.43,306.242 v -78.492 l 530.43,-306.245 v 78.495"
         style="fill:#9ac421;fill-opacity:1;fill-rule:evenodd;stroke:none;stroke-width:0.1"
         id="path22"
         inkscape:connector-curvature="0" /><path
         d="M 921.607,625.355 391.175,931.596 509.237,999.761 1039.67,693.515 921.607,625.355"
         style="fill:#c6e445;fill-opacity:1;fill-rule:evenodd;stroke:none;stroke-width:0.1"
         id="path24"
         inkscape:connector-curvature="0" /><path
         d="M 879.222,649.822 426.548,911.174 V 732.134 L 194.719,598.288 647.394,336.935 879.222,649.822"
         style="fill:#5e92d4;fill-opacity:1;fill-rule:evenodd;stroke:none;stroke-width:0.1"
         id="path26"
         inkscape:connector-curvature="0" /><path
         d="m 426.548,737.871 v -5.737 l -106.209,-61.32 c 2.012,-18.696 13.456,-38.648 25.935,-51.559 14.731,-15.249 44.668,-11.098 62.203,-23.024 18.202,-12.376 16.355,-33.192 35.756,-43.591 17.612,-9.441 39.617,-1.087 56.818,-11.265 20.53,-12.15 19.783,-31.668 39.184,-45.549 17.462,-12.497 35.466,-4.605 52.895,-17.146 13.747,-9.888 13.227,-31.432 27.43,-40.651 16.432,-10.673 67.698,-2.012 85.224,-10.774 2.193,-1.098 4.075,-2.379 5.714,-3.802 l 78.77,106.311 C 683.099,617.733 553.315,680.903 426.548,737.871"
         style="fill:#c9e0f5;fill-opacity:1;fill-rule:evenodd;stroke:none;stroke-width:0.1"
         id="path28"
         inkscape:connector-curvature="0" /><path
         d="m 426.548,737.871 v -5.737 l -94.745,-54.7 c 1.709,-17.092 12.866,-35.456 25.041,-47.28 14.181,-13.779 42.994,-10.029 59.873,-20.801 17.519,-11.183 15.743,-29.987 34.413,-39.385 16.955,-8.53 38.135,-0.982 54.685,-10.175 19.764,-10.979 19.047,-28.613 37.717,-41.155 16.808,-11.291 34.139,-4.158 50.916,-15.491 13.23,-8.934 12.729,-28.395 26.399,-36.728 15.817,-9.64 65.16,-1.818 82.028,-9.732 10.702,-5.022 13.885,-14.261 16.091,-23.154 l 71.302,96.231 C 683.099,617.733 553.315,680.903 426.548,737.871"
         style="fill:#b1d1ef;fill-opacity:1;fill-rule:evenodd;stroke:none;stroke-width:0.1"
         id="path30"
         inkscape:connector-curvature="0" /><path
         d="m 426.548,732.134 v 179.04 L 194.719,598.288 Z"
         style="fill:#87b027;fill-opacity:1;fill-rule:evenodd;stroke:none;stroke-width:0.1"
         id="path32"
         inkscape:connector-curvature="0" /><path
         d="M 921.607,625.355 391.175,931.596 v 17.27 l 568.2,-284.439 v -17.268 l -37.768,-21.804"
         style="fill:#b1b1b0;fill-opacity:1;fill-rule:evenodd;stroke:none;stroke-width:0.1"
         id="path34"
         inkscape:connector-curvature="0" /><path
         d="M 921.607,642.622 391.175,948.866 428.94,970.672 959.375,664.427 921.607,642.622"
         style="fill:#e8e8e7;fill-opacity:1;fill-rule:evenodd;stroke:none;stroke-width:0.1"
         id="path36"
         inkscape:connector-curvature="0" /><path
         d="m 506.217,865.177 -79.669,45.997 -72,-220.609 73.537,-42.452 78.132,217.064"
         style="fill:#88b5e4;fill-opacity:1;fill-rule:evenodd;stroke:none;stroke-width:0.1"
         id="path38"
         inkscape:connector-curvature="0" /><path
         d="m 391.175,948.866 v -17.27 L 921.607,625.355 v 17.267 L 391.175,948.866"
         style="fill:#cdccca;fill-opacity:1;fill-rule:evenodd;stroke:none;stroke-width:0.1"
         id="path40"
         inkscape:connector-curvature="0" /><path
         d="m 506.217,865.177 -81.352,-226.009 11.983,-6.916 69.368,53.887 11.985,172.12 -11.984,6.918"
         style="fill:#e8e8e7;fill-opacity:1;fill-rule:evenodd;stroke:none;stroke-width:0.1"
         id="path42"
         inkscape:connector-curvature="0" /><path
         d="m 518.201,858.259 -81.353,-226.007 81.353,46.967 z"
         style="fill:#cdccca;fill-opacity:1;fill-rule:evenodd;stroke:none;stroke-width:0.1"
         id="path44"
         inkscape:connector-curvature="0" /><path
         d="m 599.974,811.047 c -27.118,-75.335 -54.235,-150.673 -81.352,-226.008 3.995,-2.306 7.99,-4.612 11.983,-6.917 23.125,17.963 46.247,35.925 69.369,53.887 3.995,57.373 7.99,114.746 11.983,172.119 -3.993,2.307 -7.988,4.612 -11.983,6.919"
         style="fill:#e8e8e7;fill-opacity:1;fill-rule:evenodd;stroke:none;stroke-width:0.1"
         id="path46"
         inkscape:connector-curvature="0" /><path
         d="m 611.957,804.128 c -27.118,-75.336 -54.235,-150.671 -81.352,-226.006 27.117,15.657 54.234,31.314 81.352,46.968 0,59.681 0,119.359 0,179.038"
         style="fill:#cdccca;fill-opacity:1;fill-rule:evenodd;stroke:none;stroke-width:0.1"
         id="path48"
         inkscape:connector-curvature="0" /><path
         d="m 693.73,756.914 c -27.117,-75.335 -54.235,-150.67 -81.352,-226.005 3.998,-2.306 7.991,-4.611 11.983,-6.92 23.125,17.963 46.247,35.925 69.369,53.888 3.996,57.372 7.991,114.748 11.984,172.121 -3.993,2.305 -7.988,4.611 -11.984,6.916"
         style="fill:#e8e8e7;fill-opacity:1;fill-rule:evenodd;stroke:none;stroke-width:0.1"
         id="path50"
         inkscape:connector-curvature="0" /><path
         d="m 705.714,749.998 c -27.118,-75.335 -54.235,-150.674 -81.353,-226.009 27.118,15.657 54.235,31.314 81.353,46.971 0,59.678 0,119.36 0,179.038"
         style="fill:#cdccca;fill-opacity:1;fill-rule:evenodd;stroke:none;stroke-width:0.1"
         id="path52"
         inkscape:connector-curvature="0" /><path
         d="m 787.49,702.785 -81.352,-226.006 11.983,-6.919 55.916,43.438 25.437,182.57 -11.984,6.917"
         style="fill:#e8e8e7;fill-opacity:1;fill-rule:evenodd;stroke:none;stroke-width:0.1"
         id="path54"
         inkscape:connector-curvature="0" /><path
         d="m 799.474,695.868 -81.353,-226.008 38.447,22.2 z"
         style="fill:#cdccca;fill-opacity:1;fill-rule:evenodd;stroke:none;stroke-width:0.1"
         id="path56"
         inkscape:connector-curvature="0" /><path
         d="m 787.49,702.785 -81.776,47.213 -71.92,-220.562 75.561,-43.716 78.135,217.065"
         style="fill:#88b5e4;fill-opacity:1;fill-rule:evenodd;stroke:none;stroke-width:0.1"
         id="path58"
         inkscape:connector-curvature="0" /><path
         d="m 879.222,649.822 -79.748,46.046 -72,-220.607 15.695,-9.062 136.053,183.623"
         style="fill:#88b5e4;fill-opacity:1;fill-rule:evenodd;stroke:none;stroke-width:0.1"
         id="path60"
         inkscape:connector-curvature="0" /><path
         d="M 819.674,670.323 757.716,505.36 811.352,674.242 Z m 41.455,-44.924 9.554,12.899 -4.749,2.235 z m -40.651,-54.859 25.373,84.199 8.326,-3.919 -25.714,-69.506 z m -38.521,-51.99 4.529,6.112 49.311,133.276 -8.329,3.919 -45.511,-143.307 v 0"
         style="fill:#b1d1ef;fill-opacity:1;fill-rule:evenodd;stroke:none;stroke-width:0.1"
         id="path62"
         inkscape:connector-curvature="0" /><path
         d="m 693.443,757.083 -81.773,47.212 -71.713,-220.774 75.638,-43.668 77.848,217.23"
         style="fill:#88b5e4;fill-opacity:1;fill-rule:evenodd;stroke:none;stroke-width:0.1"
         id="path64"
         inkscape:connector-curvature="0" /><path
         d="m 599.974,811.047 -81.773,47.212 -72,-220.608 75.641,-43.671 78.132,217.067"
         style="fill:#88b5e4;fill-opacity:1;fill-rule:evenodd;stroke:none;stroke-width:0.1"
         id="path66"
         inkscape:connector-curvature="0" /><path
         d="m 194.719,598.288 v -79.455 l 451.721,-259.838 0.954,77.94 -452.675,261.353"
         style="fill:#3866b3;fill-opacity:1;fill-rule:evenodd;stroke:none;stroke-width:0.1"
         id="path68"
         inkscape:connector-curvature="0" /><path
         d="M 923.326,760.687 569.221,965.129 455.059,955.592 909.477,693.234 923.326,760.687"
         style="fill:#5e92d4;fill-opacity:1;fill-rule:evenodd;stroke:none;stroke-width:0.1"
         id="path70"
         inkscape:connector-curvature="0" /><path
         d="m 756.712,705.83 -8.326,3.919 -42.915,-142.417 z m -18.383,7.12 -8.323,3.916 -59.267,-186.61 z m -16.117,12.386 -8.325,3.916 -53.636,-168.878 z m 54.583,-33.709 -67.593,-182.695 59.267,186.614 8.326,-3.919 v 0"
         style="fill:#b1d1ef;fill-opacity:1;fill-rule:evenodd;stroke:none;stroke-width:0.1"
         id="path72"
         inkscape:connector-curvature="0" /><path
         d="M 680.771,745.199 613.182,562.504 672.445,749.118 Z"
         style="fill:#b1d1ef;fill-opacity:1;fill-rule:evenodd;stroke:none;stroke-width:0.1"
         id="path74"
         inkscape:connector-curvature="0" /><path
         d="M 660.688,759.405 609.447,620.903 652.365,763.324 Z"
         style="fill:#b1d1ef;fill-opacity:1;fill-rule:evenodd;stroke:none;stroke-width:0.1"
         id="path76"
         inkscape:connector-curvature="0" /><path
         d="m 642.308,766.522 -45.67,-123.441 37.344,127.36 z"
         style="fill:#b1d1ef;fill-opacity:1;fill-rule:evenodd;stroke:none;stroke-width:0.1"
         id="path78"
         inkscape:connector-curvature="0" /><path
         d="M 626.188,778.907 564.227,613.945 617.863,782.826 Z"
         style="fill:#b1d1ef;fill-opacity:1;fill-rule:evenodd;stroke:none;stroke-width:0.1"
         id="path80"
         inkscape:connector-curvature="0" /><path
         d="M 587.445,801.479 519.852,618.782 579.119,805.397 Z"
         style="fill:#b1d1ef;fill-opacity:1;fill-rule:evenodd;stroke:none;stroke-width:0.1"
         id="path82"
         inkscape:connector-curvature="0" /><path
         d="m 567.365,815.682 -51.243,-138.5 42.914,142.419 z"
         style="fill:#b1d1ef;fill-opacity:1;fill-rule:evenodd;stroke:none;stroke-width:0.1"
         id="path84"
         inkscape:connector-curvature="0" /><path
         d="m 548.982,822.801 -51.203,-138.39 42.877,142.307 z"
         style="fill:#b1d1ef;fill-opacity:1;fill-rule:evenodd;stroke:none;stroke-width:0.1"
         id="path86"
         inkscape:connector-curvature="0" /><path
         d="m 532.862,835.186 -71.269,-183.712 62.944,187.63 z"
         style="fill:#b1d1ef;fill-opacity:1;fill-rule:evenodd;stroke:none;stroke-width:0.1"
         id="path88"
         inkscape:connector-curvature="0" /><path
         d="M 495.362,852.908 427.769,670.211 487.037,856.825 Z"
         style="fill:#b1d1ef;fill-opacity:1;fill-rule:evenodd;stroke:none;stroke-width:0.1"
         id="path90"
         inkscape:connector-curvature="0" /><path
         d="M 475.279,867.113 424.039,728.611 466.956,871.03 Z"
         style="fill:#b1d1ef;fill-opacity:1;fill-rule:evenodd;stroke:none;stroke-width:0.1"
         id="path92"
         inkscape:connector-curvature="0" /><path
         d="M 456.899,874.23 402.434,727.016 448.573,878.147 Z"
         style="fill:#b1d1ef;fill-opacity:1;fill-rule:evenodd;stroke:none;stroke-width:0.1"
         id="path94"
         inkscape:connector-curvature="0" /><path
         d="M 440.78,886.615 378.819,721.653 432.454,890.534 Z"
         style="fill:#b1d1ef;fill-opacity:1;fill-rule:evenodd;stroke:none;stroke-width:0.1"
         id="path96"
         inkscape:connector-curvature="0" /></g></g></svg>